<svg width="159" height="12" viewBox="0 0 159 12" fill="none" xmlns="http://www.w3.org/2000/svg">
<path d="M7.75 9.18V11H0.162V1.2H7.568V3.02H2.416V5.148H6.966V6.912H2.416V9.18H7.75ZM19.1026 1.2V11H17.2406L12.3546 5.05V11H10.1146V1.2H11.9906L16.8626 7.15V1.2H19.1026ZM24.0112 3.048H20.8752V1.2H29.4152V3.048H26.2792V11H24.0112V3.048ZM38.7835 9.18V11H31.1955V1.2H38.6015V3.02H33.4495V5.148H37.9995V6.912H33.4495V9.18H38.7835ZM47.3921 11L45.5021 8.27H45.3901H43.4161V11H41.1481V1.2H45.3901C46.2581 1.2 47.0094 1.34467 47.6441 1.634C48.2881 1.92333 48.7828 2.334 49.1281 2.866C49.4734 3.398 49.6461 4.028 49.6461 4.756C49.6461 5.484 49.4688 6.114 49.1141 6.646C48.7688 7.16867 48.2741 7.57 47.6301 7.85L49.8281 11H47.3921ZM47.3501 4.756C47.3501 4.20533 47.1728 3.78533 46.8181 3.496C46.4634 3.19733 45.9454 3.048 45.2641 3.048H43.4161V6.464H45.2641C45.9454 6.464 46.4634 6.31467 46.8181 6.016C47.1728 5.71733 47.3501 5.29733 47.3501 4.756ZM61.2319 7.528V11H58.9639V7.5L55.1699 1.2H57.5779L60.1959 5.554L62.8139 1.2H65.0399L61.2319 7.528ZM70.871 11.168C69.8536 11.168 68.9343 10.9487 68.113 10.51C67.301 10.0713 66.6616 9.46933 66.195 8.704C65.7376 7.92933 65.509 7.06133 65.509 6.1C65.509 5.13867 65.7376 4.27533 66.195 3.51C66.6616 2.73533 67.301 2.12867 68.113 1.69C68.9343 1.25133 69.8536 1.032 70.871 1.032C71.8883 1.032 72.803 1.25133 73.615 1.69C74.427 2.12867 75.0663 2.73533 75.533 3.51C75.9996 4.27533 76.233 5.13867 76.233 6.1C76.233 7.06133 75.9996 7.92933 75.533 8.704C75.0663 9.46933 74.427 10.0713 73.615 10.51C72.803 10.9487 71.8883 11.168 70.871 11.168ZM70.871 9.236C71.4496 9.236 71.9723 9.10533 72.439 8.844C72.9056 8.57333 73.2696 8.2 73.531 7.724C73.8016 7.248 73.937 6.70667 73.937 6.1C73.937 5.49333 73.8016 4.952 73.531 4.476C73.2696 4 72.9056 3.63133 72.439 3.37C71.9723 3.09933 71.4496 2.964 70.871 2.964C70.2923 2.964 69.7696 3.09933 69.303 3.37C68.8363 3.63133 68.4676 4 68.197 4.476C67.9356 4.952 67.805 5.49333 67.805 6.1C67.805 6.70667 67.9356 7.248 68.197 7.724C68.4676 8.2 68.8363 8.57333 69.303 8.844C69.7696 9.10533 70.2923 9.236 70.871 9.236ZM82.8515 11.168C81.4515 11.168 80.3595 10.7807 79.5755 10.006C78.8008 9.23133 78.4135 8.12533 78.4135 6.688V1.2H80.6815V6.604C80.6815 8.35867 81.4095 9.236 82.8655 9.236C83.5748 9.236 84.1161 9.026 84.4895 8.606C84.8628 8.17667 85.0495 7.50933 85.0495 6.604V1.2H87.2895V6.688C87.2895 8.12533 86.8975 9.23133 86.1135 10.006C85.3388 10.7807 84.2515 11.168 82.8515 11.168ZM96.3347 11L94.4447 8.27H94.3327H92.3587V11H90.0907V1.2H94.3327C95.2007 1.2 95.952 1.34467 96.5867 1.634C97.2307 1.92333 97.7253 2.334 98.0707 2.866C98.416 3.398 98.5887 4.028 98.5887 4.756C98.5887 5.484 98.4113 6.114 98.0567 6.646C97.7113 7.16867 97.2167 7.57 96.5727 7.85L98.7707 11H96.3347ZM96.2927 4.756C96.2927 4.20533 96.1153 3.78533 95.7607 3.496C95.406 3.19733 94.888 3.048 94.2067 3.048H92.3587V6.464H94.2067C94.888 6.464 95.406 6.31467 95.7607 6.016C96.1153 5.71733 96.2927 5.29733 96.2927 4.756ZM113.058 9.18V11H105.47V1.2H112.876V3.02H107.724V5.148H112.274V6.912H107.724V9.18H113.058ZM124.341 11L124.327 5.12L121.443 9.964H120.421L117.551 5.246V11H115.423V1.2H117.299L120.967 7.29L124.579 1.2H126.441L126.469 11H124.341ZM135.808 8.9H131.258L130.39 11H128.066L132.434 1.2H134.674L139.056 11H136.676L135.808 8.9ZM135.094 7.178L133.54 3.426L131.986 7.178H135.094ZM140.633 1.2H142.901V11H140.633V1.2ZM145.787 1.2H148.055V9.152H152.969V11H145.787V1.2ZM157.017 3.384L158.543 4.21L157.857 5.358L156.317 4.448L156.345 6.142H155.029L155.043 4.434L153.503 5.358L152.831 4.21L154.357 3.384L152.831 2.544L153.503 1.396L155.043 2.32L155.029 0.611999H156.345L156.317 2.32L157.857 1.396L158.543 2.544L157.017 3.384Z" fill="#8B8B8B"/>
</svg>
