<svg width="129" height="11" viewBox="0 0 129 11" fill="none" xmlns="http://www.w3.org/2000/svg">
<path d="M4.404 0.199999C5.272 0.199999 6.02333 0.344666 6.658 0.634C7.302 0.923333 7.79667 1.334 8.142 1.866C8.48733 2.398 8.66 3.028 8.66 3.756C8.66 4.47467 8.48733 5.10467 8.142 5.646C7.79667 6.178 7.302 6.58867 6.658 6.878C6.02333 7.158 5.272 7.298 4.404 7.298H2.43V10H0.162V0.199999H4.404ZM4.278 5.45C4.95933 5.45 5.47733 5.30533 5.832 5.016C6.18667 4.71733 6.364 4.29733 6.364 3.756C6.364 3.20533 6.18667 2.78533 5.832 2.496C5.47733 2.19733 4.95933 2.048 4.278 2.048H2.43V5.45H4.278ZM19.8272 0.199999V10H17.5592V5.982H13.1072V10H10.8392V0.199999H13.1072V4.064H17.5592V0.199999H19.8272ZM27.4518 10.168C26.4345 10.168 25.5152 9.94867 24.6938 9.51C23.8818 9.07133 23.2425 8.46933 22.7758 7.704C22.3185 6.92933 22.0898 6.06133 22.0898 5.1C22.0898 4.13867 22.3185 3.27533 22.7758 2.51C23.2425 1.73533 23.8818 1.12867 24.6938 0.69C25.5152 0.251333 26.4345 0.0319998 27.4518 0.0319998C28.4692 0.0319998 29.3838 0.251333 30.1958 0.69C31.0078 1.12867 31.6472 1.73533 32.1138 2.51C32.5805 3.27533 32.8138 4.13867 32.8138 5.1C32.8138 6.06133 32.5805 6.92933 32.1138 7.704C31.6472 8.46933 31.0078 9.07133 30.1958 9.51C29.3838 9.94867 28.4692 10.168 27.4518 10.168ZM27.4518 8.236C28.0305 8.236 28.5532 8.10533 29.0198 7.844C29.4865 7.57333 29.8505 7.2 30.1118 6.724C30.3825 6.248 30.5178 5.70667 30.5178 5.1C30.5178 4.49333 30.3825 3.952 30.1118 3.476C29.8505 3 29.4865 2.63133 29.0198 2.37C28.5532 2.09933 28.0305 1.964 27.4518 1.964C26.8732 1.964 26.3505 2.09933 25.8838 2.37C25.4172 2.63133 25.0485 3 24.7778 3.476C24.5165 3.952 24.3858 4.49333 24.3858 5.1C24.3858 5.70667 24.5165 6.248 24.7778 6.724C25.0485 7.2 25.4172 7.57333 25.8838 7.844C26.3505 8.10533 26.8732 8.236 27.4518 8.236ZM44.0663 0.199999V10H42.2043L37.3183 4.05V10H35.0783V0.199999H36.9543L41.8263 6.15V0.199999H44.0663ZM54.533 8.18V10H46.945V0.199999H54.351V2.02H49.199V4.148H53.749V5.912H49.199V8.18H54.533ZM70.4104 0.199999V10H68.5484L63.6624 4.05V10H61.4224V0.199999H63.2984L68.1704 6.15V0.199999H70.4104ZM77.643 10.168C76.243 10.168 75.151 9.78067 74.367 9.006C73.5924 8.23133 73.205 7.12533 73.205 5.688V0.199999H75.473V5.604C75.473 7.35867 76.201 8.236 77.657 8.236C78.3664 8.236 78.9077 8.026 79.281 7.606C79.6544 7.17667 79.841 6.50933 79.841 5.604V0.199999H82.081V5.688C82.081 7.12533 81.689 8.23133 80.905 9.006C80.1304 9.78067 79.043 10.168 77.643 10.168ZM93.8002 10L93.7862 4.12L90.9022 8.964H89.8802L87.0102 4.246V10H84.8822V0.199999H86.7582L90.4262 6.29L94.0382 0.199999H95.9002L95.9282 10H93.8002ZM106.009 4.904C106.569 5.08133 107.008 5.38 107.325 5.8C107.643 6.21067 107.801 6.71933 107.801 7.326C107.801 8.18467 107.465 8.84733 106.793 9.314C106.131 9.77133 105.16 10 103.881 10H98.8133V0.199999H103.601C104.796 0.199999 105.711 0.428666 106.345 0.886C106.989 1.34333 107.311 1.964 107.311 2.748C107.311 3.224 107.195 3.64867 106.961 4.022C106.737 4.39533 106.42 4.68933 106.009 4.904ZM101.067 1.908V4.218H103.321C103.881 4.218 104.306 4.12 104.595 3.924C104.885 3.728 105.029 3.43867 105.029 3.056C105.029 2.67333 104.885 2.38867 104.595 2.202C104.306 2.006 103.881 1.908 103.321 1.908H101.067ZM103.713 8.292C104.311 8.292 104.759 8.194 105.057 7.998C105.365 7.802 105.519 7.49867 105.519 7.088C105.519 6.276 104.917 5.87 103.713 5.87H101.067V8.292H103.713ZM117.666 8.18V10H110.078V0.199999H117.484V2.02H112.332V4.148H116.882V5.912H112.332V8.18H117.666ZM126.275 10L124.385 7.27H124.273H122.299V10H120.031V0.199999H124.273C125.141 0.199999 125.892 0.344666 126.527 0.634C127.171 0.923333 127.666 1.334 128.011 1.866C128.356 2.398 128.529 3.028 128.529 3.756C128.529 4.484 128.352 5.114 127.997 5.646C127.652 6.16867 127.157 6.57 126.513 6.85L128.711 10H126.275ZM126.233 3.756C126.233 3.20533 126.056 2.78533 125.701 2.496C125.346 2.19733 124.828 2.048 124.147 2.048H122.299V5.464H124.147C124.828 5.464 125.346 5.31467 125.701 5.016C126.056 4.71733 126.233 4.29733 126.233 3.756Z" fill="#8B8B8B"/>
</svg>
