<svg width="132" height="12" viewBox="0 0 132 12" fill="none" xmlns="http://www.w3.org/2000/svg">
<path d="M6.866 7.528V11H4.598V7.5L0.804 1.2H3.212L5.83 5.554L8.448 1.2H10.674L6.866 7.528ZM16.5051 11.168C15.4878 11.168 14.5684 10.9487 13.7471 10.51C12.9351 10.0713 12.2958 9.46933 11.8291 8.704C11.3718 7.92933 11.1431 7.06133 11.1431 6.1C11.1431 5.13867 11.3718 4.27533 11.8291 3.51C12.2958 2.73533 12.9351 2.12867 13.7471 1.69C14.5684 1.25133 15.4878 1.032 16.5051 1.032C17.5224 1.032 18.4371 1.25133 19.2491 1.69C20.0611 2.12867 20.7004 2.73533 21.1671 3.51C21.6338 4.27533 21.8671 5.13867 21.8671 6.1C21.8671 7.06133 21.6338 7.92933 21.1671 8.704C20.7004 9.46933 20.0611 10.0713 19.2491 10.51C18.4371 10.9487 17.5224 11.168 16.5051 11.168ZM16.5051 9.236C17.0838 9.236 17.6064 9.10533 18.0731 8.844C18.5398 8.57333 18.9038 8.2 19.1651 7.724C19.4358 7.248 19.5711 6.70667 19.5711 6.1C19.5711 5.49333 19.4358 4.952 19.1651 4.476C18.9038 4 18.5398 3.63133 18.0731 3.37C17.6064 3.09933 17.0838 2.964 16.5051 2.964C15.9264 2.964 15.4038 3.09933 14.9371 3.37C14.4704 3.63133 14.1018 4 13.8311 4.476C13.5698 4.952 13.4391 5.49333 13.4391 6.1C13.4391 6.70667 13.5698 7.248 13.8311 7.724C14.1018 8.2 14.4704 8.57333 14.9371 8.844C15.4038 9.10533 15.9264 9.236 16.5051 9.236ZM28.4856 11.168C27.0856 11.168 25.9936 10.7807 25.2096 10.006C24.4349 9.23133 24.0476 8.12533 24.0476 6.688V1.2H26.3156V6.604C26.3156 8.35867 27.0436 9.236 28.4996 9.236C29.2089 9.236 29.7503 9.026 30.1236 8.606C30.4969 8.17667 30.6836 7.50933 30.6836 6.604V1.2H32.9236V6.688C32.9236 8.12533 32.5316 9.23133 31.7476 10.006C30.9729 10.7807 29.8856 11.168 28.4856 11.168ZM41.9688 11L40.0788 8.27H39.9668H37.9928V11H35.7248V1.2H39.9668C40.8348 1.2 41.5861 1.34467 42.2208 1.634C42.8648 1.92333 43.3595 2.334 43.7048 2.866C44.0501 3.398 44.2228 4.028 44.2228 4.756C44.2228 5.484 44.0455 6.114 43.6908 6.646C43.3455 7.16867 42.8508 7.57 42.2068 7.85L44.4048 11H41.9688ZM41.9268 4.756C41.9268 4.20533 41.7495 3.78533 41.3948 3.496C41.0401 3.19733 40.5221 3.048 39.8408 3.048H37.9928V6.464H39.8408C40.5221 6.464 41.0401 6.31467 41.3948 6.016C41.7495 5.71733 41.9268 5.29733 41.9268 4.756ZM60.0226 11L60.0086 5.12L57.1246 9.964H56.1026L53.2326 5.246V11H51.1046V1.2H52.9806L56.6486 7.29L60.2606 1.2H62.1226L62.1506 11H60.0226ZM72.6237 9.18V11H65.0357V1.2H72.4417V3.02H67.2897V5.148H71.8397V6.912H67.2897V9.18H72.6237ZM78.2082 11.168C77.4336 11.168 76.6822 11.0653 75.9542 10.86C75.2356 10.6453 74.6569 10.37 74.2182 10.034L74.9882 8.326C75.4082 8.634 75.9076 8.88133 76.4862 9.068C77.0649 9.25467 77.6436 9.348 78.2222 9.348C78.8662 9.348 79.3422 9.25467 79.6502 9.068C79.9582 8.872 80.1122 8.61533 80.1122 8.298C80.1122 8.06467 80.0189 7.87333 79.8322 7.724C79.6549 7.56533 79.4216 7.43933 79.1322 7.346C78.8522 7.25267 78.4696 7.15 77.9842 7.038C77.2376 6.86067 76.6262 6.68333 76.1502 6.506C75.6742 6.32867 75.2636 6.044 74.9182 5.652C74.5822 5.26 74.4142 4.73733 74.4142 4.084C74.4142 3.51467 74.5682 3.00133 74.8762 2.544C75.1842 2.07733 75.6462 1.70867 76.2622 1.438C76.8876 1.16733 77.6482 1.032 78.5442 1.032C79.1696 1.032 79.7809 1.10667 80.3782 1.256C80.9756 1.40533 81.4982 1.62 81.9462 1.9L81.2462 3.622C80.3409 3.10867 79.4356 2.852 78.5302 2.852C77.8956 2.852 77.4242 2.95467 77.1162 3.16C76.8176 3.36533 76.6682 3.636 76.6682 3.972C76.6682 4.308 76.8409 4.56 77.1862 4.728C77.5409 4.88667 78.0776 5.04533 78.7962 5.204C79.5429 5.38133 80.1542 5.55867 80.6302 5.736C81.1062 5.91333 81.5122 6.19333 81.8482 6.576C82.1936 6.95867 82.3662 7.47667 82.3662 8.13C82.3662 8.69 82.2076 9.20333 81.8902 9.67C81.5822 10.1273 81.1156 10.4913 80.4902 10.762C79.8649 11.0327 79.1042 11.168 78.2082 11.168ZM87.696 11.168C86.9213 11.168 86.17 11.0653 85.442 10.86C84.7233 10.6453 84.1447 10.37 83.706 10.034L84.476 8.326C84.896 8.634 85.3953 8.88133 85.974 9.068C86.5527 9.25467 87.1313 9.348 87.71 9.348C88.354 9.348 88.83 9.25467 89.138 9.068C89.446 8.872 89.6 8.61533 89.6 8.298C89.6 8.06467 89.5067 7.87333 89.32 7.724C89.1427 7.56533 88.9093 7.43933 88.62 7.346C88.34 7.25267 87.9573 7.15 87.472 7.038C86.7253 6.86067 86.114 6.68333 85.638 6.506C85.162 6.32867 84.7513 6.044 84.406 5.652C84.07 5.26 83.902 4.73733 83.902 4.084C83.902 3.51467 84.056 3.00133 84.364 2.544C84.672 2.07733 85.134 1.70867 85.75 1.438C86.3753 1.16733 87.136 1.032 88.032 1.032C88.6573 1.032 89.2687 1.10667 89.866 1.256C90.4633 1.40533 90.986 1.62 91.434 1.9L90.734 3.622C89.8287 3.10867 88.9233 2.852 88.018 2.852C87.3833 2.852 86.912 2.95467 86.604 3.16C86.3053 3.36533 86.156 3.636 86.156 3.972C86.156 4.308 86.3287 4.56 86.674 4.728C87.0287 4.88667 87.5653 5.04533 88.284 5.204C89.0307 5.38133 89.642 5.55867 90.118 5.736C90.594 5.91333 91 6.19333 91.336 6.576C91.6813 6.95867 91.854 7.47667 91.854 8.13C91.854 8.69 91.6953 9.20333 91.378 9.67C91.07 10.1273 90.6033 10.4913 89.978 10.762C89.3527 11.0327 88.592 11.168 87.696 11.168ZM100.418 8.9H95.8677L94.9997 11H92.6757L97.0437 1.2H99.2837L103.666 11H101.286L100.418 8.9ZM99.7037 7.178L98.1497 3.426L96.5957 7.178H99.7037ZM111.728 5.946H113.8V9.922C113.268 10.3233 112.652 10.6313 111.952 10.846C111.252 11.0607 110.547 11.168 109.838 11.168C108.82 11.168 107.906 10.9533 107.094 10.524C106.282 10.0853 105.642 9.48333 105.176 8.718C104.718 7.94333 104.49 7.07067 104.49 6.1C104.49 5.12933 104.718 4.26133 105.176 3.496C105.642 2.72133 106.286 2.11933 107.108 1.69C107.929 1.25133 108.853 1.032 109.88 1.032C110.738 1.032 111.518 1.17667 112.218 1.466C112.918 1.75533 113.506 2.17533 113.982 2.726L112.526 4.07C111.826 3.33267 110.981 2.964 109.992 2.964C109.366 2.964 108.811 3.09467 108.326 3.356C107.84 3.61733 107.462 3.986 107.192 4.462C106.921 4.938 106.786 5.484 106.786 6.1C106.786 6.70667 106.921 7.248 107.192 7.724C107.462 8.2 107.836 8.57333 108.312 8.844C108.797 9.10533 109.348 9.236 109.964 9.236C110.617 9.236 111.205 9.096 111.728 8.816V5.946ZM124.055 9.18V11H116.467V1.2H123.873V3.02H118.721V5.148H123.271V6.912H118.721V9.18H124.055ZM129.625 3.384L131.151 4.21L130.465 5.358L128.925 4.448L128.953 6.142H127.637L127.651 4.434L126.111 5.358L125.439 4.21L126.965 3.384L125.439 2.544L126.111 1.396L127.651 2.32L127.637 0.611999H128.953L128.925 2.32L130.465 1.396L131.151 2.544L129.625 3.384Z" fill="#8B8B8B"/>
</svg>
